ply
format ascii 1.0
element vertex 35
property float x
property float y
property float z
property float r
element face 52
property list uchar uint vertex_indices
end_header
-0.436412934677870 0.549915538954477 -0.380531624119660 0.036855296950239
0.545817845217830 0.010647247601027 -0.386601948806762 0.036409436496174
-0.528352688316964 0.004354494109733 -0.438768504426772 0.038311099464774
0.316265120039708 -0.550681142042925 -0.248218216366059 0.036913494132602
0.399885537310326 -0.742509831638531 0.230319388798274 0.041330495832136
-0.188203302875792 -0.560439671996183 -0.244422279276466 0.039190146897183
0.251073190478409 0.298346231918537 -0.101596306771758 0.032500519229695
-0.291018791032115 0.026697574317004 -0.086101677934526 0.031454134959612
-0.452641058505632 -0.729554146033647 0.253414544735592 0.041232336161001
0.298596797830697 -0.179262511630433 -0.058648682245421 0.036156399949695
0.365851401077298 0.526741660034649 -0.415978999996660 0.042509550051191
-0.396121345655563 0.444439943581778 -0.280128756585105 0.035120955007433
-0.388117481918537 -0.590079679515007 0.124623755997477 0.037687776883549
-0.226373443578243 -0.216807994606715 -0.056767731857886 0.034429356267703
-0.093735748539409 0.010815367805188 -0.041089720552928 0.069321295517685
-0.002995396943102 0.525367862283160 0.173499260082067 0.139339767916275
-0.231871215372430 -0.412603453647216 -0.125166557172222 0.031894438959823
0.074753245729530 -0.154766642140400 -0.037517632834254 0.060034354863641
-0.122546673250668 -0.455624600683802 0.077807958453936 0.148625534405033
-0.003554933606164 0.450218741177322 0.026657191175436 0.127705161528508
0.079773971679968 0.026095449553064 -0.039301587283709 0.070070365551262
0.324599900158543 -0.384251126611132 -0.138564163010648 0.033713857506443
-0.412187312695681 0.016023599450924 -0.270976615484561 0.034855712121382
-0.319894118337453 0.272332422546838 -0.116659179707739 0.036555756503345
0.357051446564928 0.434651598281258 -0.223411093272850 0.038098420133623
-0.075722557279826 0.210942289642131 -0.033832003355421 0.057125526905267
-0.158506006952144 -0.582162066669701 0.099846482869814 0.134392939325568
0.064444317692505 -0.406975705928005 0.066527282456990 0.136792447367903
0.086215359325310 -0.632721578190987 0.109735875402507 0.139424568958209
0.023448695213219 0.251127417050317 -0.036365497445890 0.058659400384241
-0.003666881717691 0.691760911976134 0.099561830546004 0.156255558865044
0.324116112061127 -0.549534391634667 0.096000218092708 0.045128506855613
-0.002633753451691 0.804639082750624 0.266004932492760 0.138327589970106
-0.022068692570320 -0.222509788300241 -0.037451452616748 0.074708616952342
0.360954661272604 0.025102885056021 -0.245361841878327 0.037180080105325
2 0 11
2 8 12
2 14 7
2 13 16
2 16 5
2 14 17
2 17 9
2 15 19
2 14 20
2 17 20
2 9 21
2 21 3
2 2 22
2 22 7
2 23 11
2 10 24
2 24 6
2 20 25
2 14 25
2 25 23
2 18 26
2 26 12
2 18 27
2 18 28
2 26 28
2 27 28
2 20 29
2 25 29
2 19 29
2 29 6
2 15 30
2 19 30
2 27 31
2 28 31
2 31 4
2 15 32
2 30 32
2 14 33
2 17 33
2 33 13
2 27 33
2 20 34
2 1 34
3  14 17 20
3  14 20 25
3  18 26 28
3  18 27 28
3  20 25 29
3  15 19 30
3  27 28 31
3  15 30 32
3  14 17 33
